<mxfile host="app.diagrams.net" agent="Mozilla/5.0 (Windows NT 10.0; Win64; x64; rv:139.0) Gecko/20100101 Firefox/139.0" version="27.1.1">
  <diagram name="Page-1" id="099fd60b-425b-db50-ffb0-6b813814b670">
    <mxGraphModel dx="1042" dy="1642" grid="1" gridSize="10" guides="1" tooltips="1" connect="1" arrows="1" fold="1" page="1" pageScale="1" pageWidth="850" pageHeight="1100" background="none" math="0" shadow="0">
      <root>
        <mxCell id="0" />
        <mxCell id="1" parent="0" />
        <mxCell id="rqdni48BAkIkgVTTU-US-25" style="edgeStyle=orthogonalEdgeStyle;rounded=0;orthogonalLoop=1;jettySize=auto;html=1;exitX=0;exitY=0.5;exitDx=0;exitDy=0;" parent="1" source="riJFMd-E-siuRD8wx49H-23" target="riJFMd-E-siuRD8wx49H-57" edge="1">
          <mxGeometry relative="1" as="geometry" />
        </mxCell>
        <mxCell id="riJFMd-E-siuRD8wx49H-23" value="Control Unit" style="rounded=0;whiteSpace=wrap;html=1;" parent="1" vertex="1">
          <mxGeometry x="490" y="-20" width="220" height="70" as="geometry" />
        </mxCell>
        <mxCell id="rqdni48BAkIkgVTTU-US-13" style="edgeStyle=orthogonalEdgeStyle;rounded=0;orthogonalLoop=1;jettySize=auto;html=1;exitX=0.5;exitY=0;exitDx=0;exitDy=0;entryX=0.5;entryY=0;entryDx=0;entryDy=0;" parent="1" source="riJFMd-E-siuRD8wx49H-2" target="riJFMd-E-siuRD8wx49H-24" edge="1">
          <mxGeometry relative="1" as="geometry" />
        </mxCell>
        <mxCell id="riJFMd-E-siuRD8wx49H-2" value="ALU" style="shape=trapezoid;perimeter=trapezoidPerimeter;whiteSpace=wrap;html=1;fixedSize=1;direction=west;rotation=0;" parent="1" vertex="1">
          <mxGeometry x="170" y="370" width="200" height="80" as="geometry" />
        </mxCell>
        <mxCell id="riJFMd-E-siuRD8wx49H-3" value="ALU_B" style="rounded=0;whiteSpace=wrap;html=1;" parent="1" vertex="1">
          <mxGeometry x="300" y="340" width="70" height="30" as="geometry" />
        </mxCell>
        <mxCell id="riJFMd-E-siuRD8wx49H-4" value="ALU_A" style="rounded=0;whiteSpace=wrap;html=1;" parent="1" vertex="1">
          <mxGeometry x="170" y="340" width="70" height="30" as="geometry" />
        </mxCell>
        <mxCell id="rqdni48BAkIkgVTTU-US-14" style="edgeStyle=orthogonalEdgeStyle;rounded=0;orthogonalLoop=1;jettySize=auto;html=1;exitX=0.5;exitY=1;exitDx=0;exitDy=0;entryX=0.5;entryY=0;entryDx=0;entryDy=0;" parent="1" source="riJFMd-E-siuRD8wx49H-24" target="riJFMd-E-siuRD8wx49H-47" edge="1">
          <mxGeometry relative="1" as="geometry" />
        </mxCell>
        <mxCell id="riJFMd-E-siuRD8wx49H-24" value="MUX" style="rounded=0;whiteSpace=wrap;html=1;" parent="1" vertex="1">
          <mxGeometry x="225" y="490" width="90" height="30" as="geometry" />
        </mxCell>
        <mxCell id="rqdni48BAkIkgVTTU-US-12" style="edgeStyle=orthogonalEdgeStyle;rounded=0;orthogonalLoop=1;jettySize=auto;html=1;exitX=0;exitY=0.75;exitDx=0;exitDy=0;entryX=0.75;entryY=0;entryDx=0;entryDy=0;" parent="1" source="riJFMd-E-siuRD8wx49H-31" target="riJFMd-E-siuRD8wx49H-24" edge="1">
          <mxGeometry relative="1" as="geometry">
            <Array as="points">
              <mxPoint x="490" y="470" />
              <mxPoint x="293" y="470" />
            </Array>
          </mxGeometry>
        </mxCell>
        <mxCell id="riJFMd-E-siuRD8wx49H-31" value="Memory" style="rounded=0;whiteSpace=wrap;html=1;" parent="1" vertex="1">
          <mxGeometry x="490" y="180" width="220" height="320" as="geometry" />
        </mxCell>
        <mxCell id="rqdni48BAkIkgVTTU-US-2" style="edgeStyle=orthogonalEdgeStyle;rounded=0;orthogonalLoop=1;jettySize=auto;html=1;exitX=1;exitY=0.5;exitDx=0;exitDy=0;entryX=0.75;entryY=0;entryDx=0;entryDy=0;" parent="1" source="riJFMd-E-siuRD8wx49H-37" target="riJFMd-E-siuRD8wx49H-31" edge="1">
          <mxGeometry relative="1" as="geometry" />
        </mxCell>
        <mxCell id="ua7R3Qg5QjwvmVrSt5He-10" style="edgeStyle=orthogonalEdgeStyle;rounded=0;orthogonalLoop=1;jettySize=auto;html=1;exitX=1;exitY=0.5;exitDx=0;exitDy=0;entryX=0.25;entryY=1;entryDx=0;entryDy=0;" parent="1" source="riJFMd-E-siuRD8wx49H-37" target="ua7R3Qg5QjwvmVrSt5He-6" edge="1">
          <mxGeometry relative="1" as="geometry" />
        </mxCell>
        <mxCell id="riJFMd-E-siuRD8wx49H-37" value="AR" style="rounded=0;whiteSpace=wrap;html=1;" parent="1" vertex="1">
          <mxGeometry x="520" y="120" width="70" height="30" as="geometry" />
        </mxCell>
        <mxCell id="riJFMd-E-siuRD8wx49H-46" style="edgeStyle=orthogonalEdgeStyle;rounded=0;orthogonalLoop=1;jettySize=auto;html=1;exitX=0.5;exitY=1;exitDx=0;exitDy=0;entryX=0.5;entryY=0;entryDx=0;entryDy=0;" parent="1" source="riJFMd-E-siuRD8wx49H-41" target="riJFMd-E-siuRD8wx49H-3" edge="1">
          <mxGeometry relative="1" as="geometry">
            <Array as="points">
              <mxPoint x="335" y="280" />
            </Array>
          </mxGeometry>
        </mxCell>
        <mxCell id="riJFMd-E-siuRD8wx49H-41" value="MUX" style="rounded=0;whiteSpace=wrap;html=1;" parent="1" vertex="1">
          <mxGeometry x="295" y="280" width="80" height="30" as="geometry" />
        </mxCell>
        <mxCell id="rqdni48BAkIkgVTTU-US-23" style="edgeStyle=orthogonalEdgeStyle;rounded=0;orthogonalLoop=1;jettySize=auto;html=1;exitX=0.5;exitY=1;exitDx=0;exitDy=0;entryX=0;entryY=0.5;entryDx=0;entryDy=0;" parent="1" source="riJFMd-E-siuRD8wx49H-47" target="riJFMd-E-siuRD8wx49H-57" edge="1">
          <mxGeometry relative="1" as="geometry">
            <Array as="points">
              <mxPoint x="270" y="590" />
              <mxPoint x="50" y="590" />
              <mxPoint x="50" y="190" />
            </Array>
          </mxGeometry>
        </mxCell>
        <mxCell id="rqdni48BAkIkgVTTU-US-24" style="edgeStyle=orthogonalEdgeStyle;rounded=0;orthogonalLoop=1;jettySize=auto;html=1;exitX=0.5;exitY=1;exitDx=0;exitDy=0;entryX=0.25;entryY=1;entryDx=0;entryDy=0;" parent="1" source="riJFMd-E-siuRD8wx49H-47" target="riJFMd-E-siuRD8wx49H-31" edge="1">
          <mxGeometry relative="1" as="geometry" />
        </mxCell>
        <mxCell id="riJFMd-E-siuRD8wx49H-47" value="BR" style="rounded=0;whiteSpace=wrap;html=1;" parent="1" vertex="1">
          <mxGeometry x="237.5" y="540" width="65" height="30" as="geometry" />
        </mxCell>
        <mxCell id="QVSUZhxjnj2yHQhHwwUk-3" style="edgeStyle=orthogonalEdgeStyle;rounded=0;orthogonalLoop=1;jettySize=auto;html=1;exitX=0.5;exitY=1;exitDx=0;exitDy=0;entryX=0.75;entryY=0;entryDx=0;entryDy=0;jumpStyle=arc;" parent="1" source="riJFMd-E-siuRD8wx49H-47" target="riJFMd-E-siuRD8wx49H-41" edge="1">
          <mxGeometry relative="1" as="geometry">
            <Array as="points">
              <mxPoint x="270" y="590" />
              <mxPoint x="450" y="590" />
              <mxPoint x="450" y="260" />
              <mxPoint x="355" y="260" />
            </Array>
          </mxGeometry>
        </mxCell>
        <mxCell id="rqdni48BAkIkgVTTU-US-8" style="edgeStyle=orthogonalEdgeStyle;rounded=0;orthogonalLoop=1;jettySize=auto;html=1;exitX=0.75;exitY=1;exitDx=0;exitDy=0;entryX=0.25;entryY=0;entryDx=0;entryDy=0;" parent="1" source="riJFMd-E-siuRD8wx49H-57" target="riJFMd-E-siuRD8wx49H-41" edge="1">
          <mxGeometry relative="1" as="geometry" />
        </mxCell>
        <mxCell id="rqdni48BAkIkgVTTU-US-15" style="edgeStyle=orthogonalEdgeStyle;rounded=0;orthogonalLoop=1;jettySize=auto;html=1;exitX=0.25;exitY=1;exitDx=0;exitDy=0;entryX=0.25;entryY=0;entryDx=0;entryDy=0;jumpSize=6;" parent="1" source="riJFMd-E-siuRD8wx49H-57" target="riJFMd-E-siuRD8wx49H-24" edge="1">
          <mxGeometry relative="1" as="geometry">
            <Array as="points">
              <mxPoint x="132" y="260" />
              <mxPoint x="80" y="260" />
              <mxPoint x="80" y="470" />
              <mxPoint x="248" y="470" />
            </Array>
          </mxGeometry>
        </mxCell>
        <mxCell id="zS4TKSHjCkxRC6CheRrW-1" style="edgeStyle=orthogonalEdgeStyle;rounded=0;orthogonalLoop=1;jettySize=auto;html=1;exitX=0.75;exitY=1;exitDx=0;exitDy=0;entryX=0;entryY=0.5;entryDx=0;entryDy=0;" parent="1" source="riJFMd-E-siuRD8wx49H-57" target="riJFMd-E-siuRD8wx49H-66" edge="1">
          <mxGeometry relative="1" as="geometry">
            <Array as="points">
              <mxPoint x="238" y="250" />
              <mxPoint x="370" y="250" />
              <mxPoint x="370" y="135" />
            </Array>
          </mxGeometry>
        </mxCell>
        <mxCell id="ua7R3Qg5QjwvmVrSt5He-2" style="edgeStyle=orthogonalEdgeStyle;rounded=0;orthogonalLoop=1;jettySize=auto;html=1;exitX=0.25;exitY=1;exitDx=0;exitDy=0;entryX=0.25;entryY=0;entryDx=0;entryDy=0;" parent="1" source="riJFMd-E-siuRD8wx49H-57" target="ua7R3Qg5QjwvmVrSt5He-1" edge="1">
          <mxGeometry relative="1" as="geometry">
            <Array as="points">
              <mxPoint x="132" y="260" />
              <mxPoint x="185" y="260" />
            </Array>
          </mxGeometry>
        </mxCell>
        <mxCell id="riJFMd-E-siuRD8wx49H-57" value="Register File" style="rounded=0;whiteSpace=wrap;html=1;" parent="1" vertex="1">
          <mxGeometry x="80" y="160" width="210" height="60" as="geometry" />
        </mxCell>
        <mxCell id="riJFMd-E-siuRD8wx49H-67" style="edgeStyle=orthogonalEdgeStyle;rounded=0;orthogonalLoop=1;jettySize=auto;html=1;exitX=1;exitY=0.5;exitDx=0;exitDy=0;entryX=0;entryY=0.5;entryDx=0;entryDy=0;" parent="1" source="riJFMd-E-siuRD8wx49H-66" target="riJFMd-E-siuRD8wx49H-37" edge="1">
          <mxGeometry relative="1" as="geometry" />
        </mxCell>
        <mxCell id="riJFMd-E-siuRD8wx49H-66" value="MUX" style="rounded=0;whiteSpace=wrap;html=1;" parent="1" vertex="1">
          <mxGeometry x="420" y="100" width="35" height="70" as="geometry" />
        </mxCell>
        <mxCell id="riJFMd-E-siuRD8wx49H-118" value="" style="endArrow=classic;html=1;rounded=0;dashed=1;endFill=1;" parent="1" edge="1">
          <mxGeometry width="50" height="50" relative="1" as="geometry">
            <mxPoint x="770" y="240" as="sourcePoint" />
            <mxPoint x="710" y="240" as="targetPoint" />
          </mxGeometry>
        </mxCell>
        <mxCell id="riJFMd-E-siuRD8wx49H-119" value="&amp;nbsp;read&amp;nbsp; " style="edgeLabel;html=1;align=center;verticalAlign=middle;resizable=0;points=[];" parent="riJFMd-E-siuRD8wx49H-118" vertex="1" connectable="0">
          <mxGeometry x="-0.0555" y="-1" relative="1" as="geometry">
            <mxPoint y="-8" as="offset" />
          </mxGeometry>
        </mxCell>
        <mxCell id="riJFMd-E-siuRD8wx49H-120" value="" style="endArrow=classic;html=1;rounded=0;dashed=1;" parent="1" edge="1">
          <mxGeometry width="50" height="50" relative="1" as="geometry">
            <mxPoint x="770" y="280" as="sourcePoint" />
            <mxPoint x="710" y="280" as="targetPoint" />
          </mxGeometry>
        </mxCell>
        <mxCell id="riJFMd-E-siuRD8wx49H-121" value="write" style="edgeLabel;html=1;align=center;verticalAlign=middle;resizable=0;points=[];" parent="riJFMd-E-siuRD8wx49H-120" vertex="1" connectable="0">
          <mxGeometry x="-0.0555" y="-1" relative="1" as="geometry">
            <mxPoint y="-8" as="offset" />
          </mxGeometry>
        </mxCell>
        <mxCell id="riJFMd-E-siuRD8wx49H-138" value="" style="endArrow=classic;html=1;rounded=0;dashed=1;" parent="1" edge="1">
          <mxGeometry width="50" height="50" relative="1" as="geometry">
            <mxPoint x="425" y="294.5" as="sourcePoint" />
            <mxPoint x="375" y="294.5" as="targetPoint" />
          </mxGeometry>
        </mxCell>
        <mxCell id="riJFMd-E-siuRD8wx49H-139" value="sel_b" style="edgeLabel;html=1;align=center;verticalAlign=middle;resizable=0;points=[];" parent="riJFMd-E-siuRD8wx49H-138" vertex="1" connectable="0">
          <mxGeometry x="-0.0555" y="-1" relative="1" as="geometry">
            <mxPoint y="-8" as="offset" />
          </mxGeometry>
        </mxCell>
        <mxCell id="riJFMd-E-siuRD8wx49H-147" value="N" style="rounded=0;whiteSpace=wrap;html=1;" parent="1" vertex="1">
          <mxGeometry x="195" y="430" width="20" height="20" as="geometry" />
        </mxCell>
        <mxCell id="riJFMd-E-siuRD8wx49H-148" value="Z" style="rounded=0;whiteSpace=wrap;html=1;" parent="1" vertex="1">
          <mxGeometry x="215" y="430" width="20" height="20" as="geometry" />
        </mxCell>
        <mxCell id="riJFMd-E-siuRD8wx49H-150" value="V" style="rounded=0;whiteSpace=wrap;html=1;" parent="1" vertex="1">
          <mxGeometry x="305" y="430" width="20" height="20" as="geometry" />
        </mxCell>
        <mxCell id="riJFMd-E-siuRD8wx49H-151" value="C" style="rounded=0;whiteSpace=wrap;html=1;" parent="1" vertex="1">
          <mxGeometry x="325" y="430" width="20" height="20" as="geometry" />
        </mxCell>
        <mxCell id="riJFMd-E-siuRD8wx49H-156" value="" style="endArrow=classic;html=1;rounded=0;dashed=1;" parent="1" edge="1">
          <mxGeometry width="50" height="50" relative="1" as="geometry">
            <mxPoint x="420" y="409.92" as="sourcePoint" />
            <mxPoint x="360" y="409.50000000000006" as="targetPoint" />
          </mxGeometry>
        </mxCell>
        <mxCell id="riJFMd-E-siuRD8wx49H-157" value="alu_op" style="edgeLabel;html=1;align=center;verticalAlign=middle;resizable=0;points=[];" parent="riJFMd-E-siuRD8wx49H-156" vertex="1" connectable="0">
          <mxGeometry x="-0.0555" y="-1" relative="1" as="geometry">
            <mxPoint y="-8" as="offset" />
          </mxGeometry>
        </mxCell>
        <mxCell id="EaKisJZvBfBLLmFNlHl6-3" value="" style="endArrow=classic;html=1;rounded=0;dashed=1;entryX=0.25;entryY=1;entryDx=0;entryDy=0;" parent="1" edge="1">
          <mxGeometry width="50" height="50" relative="1" as="geometry">
            <mxPoint x="770" as="sourcePoint" />
            <mxPoint x="710" y="-1.1368683772161603e-13" as="targetPoint" />
          </mxGeometry>
        </mxCell>
        <mxCell id="EaKisJZvBfBLLmFNlHl6-4" value="NZVC" style="edgeLabel;html=1;align=center;verticalAlign=middle;resizable=0;points=[];" parent="EaKisJZvBfBLLmFNlHl6-3" vertex="1" connectable="0">
          <mxGeometry x="-0.0555" y="-3" relative="1" as="geometry">
            <mxPoint x="1" y="-8" as="offset" />
          </mxGeometry>
        </mxCell>
        <mxCell id="EaKisJZvBfBLLmFNlHl6-6" value="" style="endArrow=classic;html=1;rounded=0;dashed=1;entryX=1;entryY=0.75;entryDx=0;entryDy=0;" parent="1" target="riJFMd-E-siuRD8wx49H-23" edge="1">
          <mxGeometry width="50" height="50" relative="1" as="geometry">
            <mxPoint x="710" y="201.5" as="sourcePoint" />
            <mxPoint x="710" y="68.5" as="targetPoint" />
            <Array as="points">
              <mxPoint x="770" y="201.5" />
              <mxPoint x="770" y="138.5" />
              <mxPoint x="770" y="33" />
            </Array>
          </mxGeometry>
        </mxCell>
        <mxCell id="rqdni48BAkIkgVTTU-US-32" value="interrupt" style="edgeLabel;html=1;align=center;verticalAlign=middle;resizable=0;points=[];" parent="EaKisJZvBfBLLmFNlHl6-6" vertex="1" connectable="0">
          <mxGeometry x="-0.0235" y="1" relative="1" as="geometry">
            <mxPoint y="-4" as="offset" />
          </mxGeometry>
        </mxCell>
        <mxCell id="rqdni48BAkIkgVTTU-US-27" value="0x11" style="rounded=0;whiteSpace=wrap;html=1;" parent="1" vertex="1">
          <mxGeometry x="650" y="460" width="40" height="40" as="geometry" />
        </mxCell>
        <mxCell id="rqdni48BAkIkgVTTU-US-28" value="0x10" style="rounded=0;whiteSpace=wrap;html=1;" parent="1" vertex="1">
          <mxGeometry x="590" y="460" width="40" height="40" as="geometry" />
        </mxCell>
        <mxCell id="rqdni48BAkIkgVTTU-US-29" value="" style="endArrow=classic;html=1;rounded=0;" parent="1" edge="1">
          <mxGeometry width="50" height="50" relative="1" as="geometry">
            <mxPoint x="609.5" y="560" as="sourcePoint" />
            <mxPoint x="609.5" y="500" as="targetPoint" />
          </mxGeometry>
        </mxCell>
        <mxCell id="rqdni48BAkIkgVTTU-US-35" value="input" style="edgeLabel;html=1;align=center;verticalAlign=middle;resizable=0;points=[];" parent="rqdni48BAkIkgVTTU-US-29" vertex="1" connectable="0">
          <mxGeometry x="-0.0667" y="2" relative="1" as="geometry">
            <mxPoint x="2" y="-2" as="offset" />
          </mxGeometry>
        </mxCell>
        <mxCell id="rqdni48BAkIkgVTTU-US-30" value="" style="endArrow=classic;html=1;rounded=0;" parent="1" edge="1">
          <mxGeometry width="50" height="50" relative="1" as="geometry">
            <mxPoint x="669.5" y="500" as="sourcePoint" />
            <mxPoint x="670" y="560" as="targetPoint" />
          </mxGeometry>
        </mxCell>
        <mxCell id="rqdni48BAkIkgVTTU-US-36" value="output" style="edgeLabel;html=1;align=center;verticalAlign=middle;resizable=0;points=[];" parent="rqdni48BAkIkgVTTU-US-30" vertex="1" connectable="0">
          <mxGeometry x="-0.0341" y="-3" relative="1" as="geometry">
            <mxPoint x="2" y="1" as="offset" />
          </mxGeometry>
        </mxCell>
        <mxCell id="rqdni48BAkIkgVTTU-US-37" value="" style="endArrow=classic;html=1;rounded=0;dashed=1;" parent="1" edge="1">
          <mxGeometry width="50" height="50" relative="1" as="geometry">
            <mxPoint x="530" y="100" as="sourcePoint" />
            <mxPoint x="530" y="120" as="targetPoint" />
          </mxGeometry>
        </mxCell>
        <mxCell id="rqdni48BAkIkgVTTU-US-38" value="latch_ar" style="edgeLabel;html=1;align=center;verticalAlign=middle;resizable=0;points=[];" parent="rqdni48BAkIkgVTTU-US-37" vertex="1" connectable="0">
          <mxGeometry x="-0.0555" y="-4" relative="1" as="geometry">
            <mxPoint x="31" y="-3" as="offset" />
          </mxGeometry>
        </mxCell>
        <mxCell id="rqdni48BAkIkgVTTU-US-42" value="" style="endArrow=classic;html=1;rounded=0;dashed=1;" parent="1" edge="1">
          <mxGeometry width="50" height="50" relative="1" as="geometry">
            <mxPoint x="437" y="70" as="sourcePoint" />
            <mxPoint x="437" y="100" as="targetPoint" />
          </mxGeometry>
        </mxCell>
        <mxCell id="rqdni48BAkIkgVTTU-US-43" value="sel_ar" style="edgeLabel;html=1;align=center;verticalAlign=middle;resizable=0;points=[];" parent="rqdni48BAkIkgVTTU-US-42" vertex="1" connectable="0">
          <mxGeometry x="-0.0555" y="-4" relative="1" as="geometry">
            <mxPoint x="-18" y="-5" as="offset" />
          </mxGeometry>
        </mxCell>
        <mxCell id="rqdni48BAkIkgVTTU-US-44" value="" style="endArrow=classic;html=1;rounded=0;dashed=1;" parent="1" edge="1">
          <mxGeometry width="50" height="50" relative="1" as="geometry">
            <mxPoint x="365" y="504.5" as="sourcePoint" />
            <mxPoint x="315" y="504.5" as="targetPoint" />
          </mxGeometry>
        </mxCell>
        <mxCell id="rqdni48BAkIkgVTTU-US-45" value="sel_br" style="edgeLabel;html=1;align=center;verticalAlign=middle;resizable=0;points=[];" parent="rqdni48BAkIkgVTTU-US-44" vertex="1" connectable="0">
          <mxGeometry x="-0.0555" y="-1" relative="1" as="geometry">
            <mxPoint x="1" y="-8" as="offset" />
          </mxGeometry>
        </mxCell>
        <mxCell id="rqdni48BAkIkgVTTU-US-46" value="" style="endArrow=classic;html=1;rounded=0;dashed=1;" parent="1" edge="1">
          <mxGeometry width="50" height="50" relative="1" as="geometry">
            <mxPoint x="360" y="555" as="sourcePoint" />
            <mxPoint x="302.5" y="554.5" as="targetPoint" />
          </mxGeometry>
        </mxCell>
        <mxCell id="rqdni48BAkIkgVTTU-US-47" value="latch_br" style="edgeLabel;html=1;align=center;verticalAlign=middle;resizable=0;points=[];" parent="rqdni48BAkIkgVTTU-US-46" vertex="1" connectable="0">
          <mxGeometry x="-0.0555" y="-1" relative="1" as="geometry">
            <mxPoint x="1" y="-8" as="offset" />
          </mxGeometry>
        </mxCell>
        <mxCell id="rqdni48BAkIkgVTTU-US-49" value="" style="endArrow=classic;html=1;rounded=0;dashed=1;" parent="1" edge="1">
          <mxGeometry width="50" height="50" relative="1" as="geometry">
            <mxPoint x="440" y="355" as="sourcePoint" />
            <mxPoint x="370" y="354.5" as="targetPoint" />
          </mxGeometry>
        </mxCell>
        <mxCell id="rqdni48BAkIkgVTTU-US-50" value="latch_alu_b" style="edgeLabel;html=1;align=center;verticalAlign=middle;resizable=0;points=[];" parent="rqdni48BAkIkgVTTU-US-49" vertex="1" connectable="0">
          <mxGeometry x="-0.0555" y="-1" relative="1" as="geometry">
            <mxPoint x="1" y="-8" as="offset" />
          </mxGeometry>
        </mxCell>
        <mxCell id="rqdni48BAkIkgVTTU-US-51" value="" style="endArrow=classic;html=1;rounded=0;dashed=1;" parent="1" edge="1">
          <mxGeometry width="50" height="50" relative="1" as="geometry">
            <mxPoint x="100" y="355" as="sourcePoint" />
            <mxPoint x="170" y="354.5" as="targetPoint" />
          </mxGeometry>
        </mxCell>
        <mxCell id="rqdni48BAkIkgVTTU-US-52" value="latch_alu_a" style="edgeLabel;html=1;align=center;verticalAlign=middle;resizable=0;points=[];" parent="rqdni48BAkIkgVTTU-US-51" vertex="1" connectable="0">
          <mxGeometry x="-0.0555" y="-1" relative="1" as="geometry">
            <mxPoint x="-4" y="-10" as="offset" />
          </mxGeometry>
        </mxCell>
        <mxCell id="rqdni48BAkIkgVTTU-US-54" value="data" style="edgeLabel;html=1;align=center;verticalAlign=middle;resizable=0;points=[];" parent="1" vertex="1" connectable="0">
          <mxGeometry x="410" y="580" as="geometry">
            <mxPoint x="14" as="offset" />
          </mxGeometry>
        </mxCell>
        <mxCell id="rqdni48BAkIkgVTTU-US-55" value="data" style="edgeLabel;html=1;align=center;verticalAlign=middle;resizable=0;points=[];" parent="1" vertex="1" connectable="0">
          <mxGeometry x="385" y="462" as="geometry">
            <mxPoint x="14" as="offset" />
          </mxGeometry>
        </mxCell>
        <mxCell id="rqdni48BAkIkgVTTU-US-57" value="" style="endArrow=classic;html=1;rounded=0;dashed=1;" parent="1" edge="1">
          <mxGeometry width="50" height="50" relative="1" as="geometry">
            <mxPoint x="110" y="130" as="sourcePoint" />
            <mxPoint x="110" y="160" as="targetPoint" />
          </mxGeometry>
        </mxCell>
        <mxCell id="rqdni48BAkIkgVTTU-US-58" value="read_reg" style="edgeLabel;html=1;align=center;verticalAlign=middle;resizable=0;points=[];" parent="rqdni48BAkIkgVTTU-US-57" vertex="1" connectable="0">
          <mxGeometry x="-0.0555" y="-4" relative="1" as="geometry">
            <mxPoint x="28" y="-5" as="offset" />
          </mxGeometry>
        </mxCell>
        <mxCell id="rqdni48BAkIkgVTTU-US-59" value="" style="endArrow=classic;html=1;rounded=0;dashed=1;" parent="1" edge="1">
          <mxGeometry width="50" height="50" relative="1" as="geometry">
            <mxPoint x="260" y="130" as="sourcePoint" />
            <mxPoint x="260" y="160" as="targetPoint" />
          </mxGeometry>
        </mxCell>
        <mxCell id="rqdni48BAkIkgVTTU-US-60" value="write_reg" style="edgeLabel;html=1;align=center;verticalAlign=middle;resizable=0;points=[];" parent="rqdni48BAkIkgVTTU-US-59" vertex="1" connectable="0">
          <mxGeometry x="-0.0555" y="-4" relative="1" as="geometry">
            <mxPoint x="-23" y="-5" as="offset" />
          </mxGeometry>
        </mxCell>
        <mxCell id="zS4TKSHjCkxRC6CheRrW-2" value="" style="endArrow=classic;html=1;rounded=0;entryX=0;entryY=0.75;entryDx=0;entryDy=0;" parent="1" target="riJFMd-E-siuRD8wx49H-66" edge="1">
          <mxGeometry width="50" height="50" relative="1" as="geometry">
            <mxPoint x="480" y="470" as="sourcePoint" />
            <mxPoint x="400" y="160" as="targetPoint" />
            <Array as="points">
              <mxPoint x="470" y="470" />
              <mxPoint x="470" y="200" />
              <mxPoint x="400" y="200" />
              <mxPoint x="400" y="153" />
            </Array>
          </mxGeometry>
        </mxCell>
        <mxCell id="QVSUZhxjnj2yHQhHwwUk-1" style="edgeStyle=orthogonalEdgeStyle;rounded=0;orthogonalLoop=1;jettySize=auto;html=1;exitX=0;exitY=0.5;exitDx=0;exitDy=0;entryX=0.5;entryY=0;entryDx=0;entryDy=0;jumpStyle=arc;" parent="1" source="riJFMd-E-siuRD8wx49H-23" target="riJFMd-E-siuRD8wx49H-41" edge="1">
          <mxGeometry relative="1" as="geometry" />
        </mxCell>
        <mxCell id="rqdni48BAkIkgVTTU-US-21" value="" style="endArrow=classic;html=1;rounded=0;" parent="1" edge="1">
          <mxGeometry width="50" height="50" relative="1" as="geometry">
            <mxPoint x="335" y="117" as="sourcePoint" />
            <mxPoint x="420" y="117" as="targetPoint" />
          </mxGeometry>
        </mxCell>
        <mxCell id="ua7R3Qg5QjwvmVrSt5He-3" style="edgeStyle=orthogonalEdgeStyle;rounded=0;orthogonalLoop=1;jettySize=auto;html=1;exitX=0.5;exitY=1;exitDx=0;exitDy=0;entryX=0.5;entryY=0;entryDx=0;entryDy=0;" parent="1" source="ua7R3Qg5QjwvmVrSt5He-1" target="riJFMd-E-siuRD8wx49H-4" edge="1">
          <mxGeometry relative="1" as="geometry" />
        </mxCell>
        <mxCell id="ua7R3Qg5QjwvmVrSt5He-1" value="MUX" style="rounded=0;whiteSpace=wrap;html=1;" parent="1" vertex="1">
          <mxGeometry x="165" y="280" width="80" height="30" as="geometry" />
        </mxCell>
        <mxCell id="ua7R3Qg5QjwvmVrSt5He-12" style="edgeStyle=orthogonalEdgeStyle;rounded=0;orthogonalLoop=1;jettySize=auto;html=1;exitX=0.5;exitY=0;exitDx=0;exitDy=0;entryX=0.75;entryY=1;entryDx=0;entryDy=0;" parent="1" source="ua7R3Qg5QjwvmVrSt5He-6" target="riJFMd-E-siuRD8wx49H-23" edge="1">
          <mxGeometry relative="1" as="geometry" />
        </mxCell>
        <mxCell id="ua7R3Qg5QjwvmVrSt5He-6" value="MUX" style="rounded=0;whiteSpace=wrap;html=1;" parent="1" vertex="1">
          <mxGeometry x="620" y="70" width="70" height="30" as="geometry" />
        </mxCell>
        <mxCell id="ua7R3Qg5QjwvmVrSt5He-7" style="edgeStyle=orthogonalEdgeStyle;rounded=0;orthogonalLoop=1;jettySize=auto;html=1;exitX=0;exitY=0.5;exitDx=0;exitDy=0;entryX=0.75;entryY=0;entryDx=0;entryDy=0;jumpStyle=arc;" parent="1" source="riJFMd-E-siuRD8wx49H-23" target="ua7R3Qg5QjwvmVrSt5He-1" edge="1">
          <mxGeometry relative="1" as="geometry">
            <Array as="points">
              <mxPoint x="300" y="15" />
              <mxPoint x="300" y="260" />
              <mxPoint x="225" y="260" />
            </Array>
          </mxGeometry>
        </mxCell>
        <mxCell id="ua7R3Qg5QjwvmVrSt5He-14" value="" style="endArrow=classic;html=1;rounded=0;exitX=0.5;exitY=1;exitDx=0;exitDy=0;entryX=0.75;entryY=1;entryDx=0;entryDy=0;" parent="1" source="riJFMd-E-siuRD8wx49H-47" target="ua7R3Qg5QjwvmVrSt5He-6" edge="1">
          <mxGeometry width="50" height="50" relative="1" as="geometry">
            <mxPoint x="350" y="640" as="sourcePoint" />
            <mxPoint x="340" y="680" as="targetPoint" />
            <Array as="points">
              <mxPoint x="270" y="610" />
              <mxPoint x="800" y="610" />
              <mxPoint x="800" y="160" />
              <mxPoint x="673" y="160" />
            </Array>
          </mxGeometry>
        </mxCell>
        <mxCell id="ua7R3Qg5QjwvmVrSt5He-16" value="" style="endArrow=classic;html=1;rounded=0;dashed=1;" parent="1" edge="1">
          <mxGeometry width="50" height="50" relative="1" as="geometry">
            <mxPoint x="560" y="84" as="sourcePoint" />
            <mxPoint x="620" y="84.41" as="targetPoint" />
          </mxGeometry>
        </mxCell>
        <mxCell id="ua7R3Qg5QjwvmVrSt5He-17" value="sel_cu" style="edgeLabel;html=1;align=center;verticalAlign=middle;resizable=0;points=[];" parent="ua7R3Qg5QjwvmVrSt5He-16" vertex="1" connectable="0">
          <mxGeometry x="-0.0555" y="-1" relative="1" as="geometry">
            <mxPoint x="-4" y="-10" as="offset" />
          </mxGeometry>
        </mxCell>
        <mxCell id="VKz5n5FhvgQKnVYOfH1z-1" value="" style="endArrow=classic;html=1;rounded=0;dashed=1;" edge="1" parent="1">
          <mxGeometry width="50" height="50" relative="1" as="geometry">
            <mxPoint x="110" y="295" as="sourcePoint" />
            <mxPoint x="165" y="294.5" as="targetPoint" />
          </mxGeometry>
        </mxCell>
        <mxCell id="VKz5n5FhvgQKnVYOfH1z-2" value="sel_a" style="edgeLabel;html=1;align=center;verticalAlign=middle;resizable=0;points=[];" vertex="1" connectable="0" parent="VKz5n5FhvgQKnVYOfH1z-1">
          <mxGeometry x="-0.0555" y="-1" relative="1" as="geometry">
            <mxPoint x="-4" y="-10" as="offset" />
          </mxGeometry>
        </mxCell>
      </root>
    </mxGraphModel>
  </diagram>
</mxfile>
